<svg width="557" height="544" viewBox="0 0 557 544" fill="none" xmlns="http://www.w3.org/2000/svg">
<path d="M553.014 225.885C554.771 235.932 555.963 246.167 556.559 256.558L556.06 256.586C556.352 261.688 556.5 266.827 556.5 272C556.5 277.173 556.352 282.312 556.06 287.414L556.559 287.442C555.963 297.833 554.771 308.068 553.014 318.115L552.521 318.029C550.738 328.23 548.371 338.238 545.456 348.017L545.935 348.16C542.979 358.078 539.461 367.762 535.415 377.176L534.956 376.979C530.886 386.451 526.281 395.651 521.179 404.542L521.613 404.791C516.481 413.734 510.846 422.365 504.747 430.647L504.345 430.35C498.25 438.626 491.691 446.553 484.704 454.095L485.071 454.435C478.082 461.978 470.666 469.137 462.861 475.875L462.534 475.496C454.773 482.196 446.625 488.479 438.128 494.309L438.411 494.721C429.95 500.527 421.143 505.884 412.027 510.757L411.791 510.316C402.772 515.138 393.449 519.485 383.858 523.324L384.044 523.788C374.547 527.589 364.788 530.893 354.8 533.666L354.666 533.184C344.843 535.911 334.798 538.124 324.564 539.79L324.644 540.284C314.583 541.922 304.338 543.034 293.942 543.589L293.916 543.09C288.813 543.362 283.673 543.5 278.5 543.5C273.327 543.5 268.187 543.362 263.084 543.09L263.058 543.589C252.662 543.034 242.417 541.922 232.356 540.284L232.436 539.79C222.202 538.124 212.157 535.911 202.334 533.184L202.2 533.666C192.212 530.893 182.453 527.589 172.956 523.788L173.142 523.324C163.551 519.485 154.228 515.138 145.209 510.316L144.973 510.757C135.857 505.884 127.05 500.527 118.589 494.721L118.872 494.309C110.375 488.479 102.227 482.196 94.466 475.496L94.1392 475.875C86.3337 469.137 78.918 461.978 71.9294 454.435L72.2962 454.095C65.309 446.553 58.7496 438.626 52.6553 430.35L52.2527 430.647C46.1535 422.365 40.5192 413.734 35.3873 404.791L35.821 404.542C30.7189 395.651 26.1143 386.451 22.0439 376.979L21.5846 377.176C17.5392 367.762 14.0206 358.078 11.0647 348.16L11.5438 348.017C8.62909 338.238 6.26247 328.23 4.47865 318.029L3.98612 318.115C2.22934 308.068 1.03675 297.833 0.441304 287.442L0.940485 287.414C0.648136 282.312 0.5 277.173 0.5 272C0.5 266.827 0.648136 261.688 0.940484 256.586L0.441303 256.558C1.03675 246.167 2.22934 235.932 3.98612 225.885L4.47865 225.971C6.26248 215.77 8.62909 205.762 11.5438 195.983L11.0647 195.84C14.0206 185.922 17.5392 176.238 21.5845 166.824L22.0439 167.021C26.1143 157.549 30.7189 148.349 35.821 139.458L35.3873 139.209C40.5192 130.266 46.1535 121.635 52.2527 113.353L52.6554 113.65C58.7496 105.374 65.309 97.4472 72.2962 89.9053L71.9294 89.5655C78.918 82.0221 86.3337 74.8632 94.1392 68.1253L94.466 68.5038C102.227 61.8039 110.375 55.521 118.872 49.6909L118.589 49.2787C127.05 43.4734 135.857 38.1163 144.973 33.2427L145.209 33.6837C154.228 28.8622 163.551 24.5149 173.142 20.676L172.956 20.2118C182.453 16.4106 192.212 13.107 202.2 10.3343L202.334 10.816C212.157 8.08911 222.202 5.87647 232.436 4.20981L232.356 3.71631C242.417 2.07771 252.662 0.965951 263.058 0.411058L263.084 0.910347C268.187 0.637971 273.327 0.5 278.5 0.5C283.673 0.5 288.813 0.637971 293.916 0.910347L293.942 0.411058C304.338 0.965951 314.583 2.07771 324.644 3.71632L324.564 4.20981C334.798 5.87647 344.843 8.08912 354.666 10.816L354.8 10.3343C364.788 13.107 374.547 16.4106 384.044 20.2118L383.858 20.676C393.449 24.5149 402.772 28.8622 411.791 33.6837L412.027 33.2427C421.143 38.1163 429.95 43.4734 438.411 49.2787L438.128 49.6909C446.625 55.521 454.773 61.8039 462.534 68.5038L462.861 68.1253C470.666 74.8632 478.082 82.0221 485.071 89.5655L484.704 89.9053C491.691 97.4472 498.25 105.374 504.345 113.65L504.747 113.353C510.846 121.635 516.481 130.266 521.613 139.209L521.179 139.458C526.281 148.349 530.886 157.549 534.956 167.021L535.415 166.824C539.461 176.238 542.979 185.922 545.935 195.84L545.456 195.983C548.371 205.762 550.738 215.77 552.521 225.971L553.014 225.885Z" stroke="#42B16E" stroke-dasharray="30 30"/>
<path d="M485.021 230.766C486.772 239.711 487.964 248.859 488.559 258.17L488.06 258.202C488.352 262.763 488.5 267.364 488.5 272C488.5 276.636 488.352 281.237 488.06 285.798L488.559 285.83C487.964 295.141 486.772 304.288 485.021 313.234L484.53 313.138C482.747 322.247 480.384 331.146 477.48 339.795L477.954 339.954C475.001 348.748 471.49 357.284 467.465 365.518L467.016 365.299C462.96 373.596 458.38 381.586 453.319 389.226L453.736 389.502C448.633 397.206 443.042 404.554 437.009 411.502L436.631 411.174C430.597 418.123 424.118 424.671 417.24 430.773L417.571 431.147C410.681 437.259 403.39 442.924 395.744 448.098L395.464 447.684C387.868 452.824 379.92 457.477 371.665 461.599L371.889 462.047C363.683 466.145 355.173 469.719 346.404 472.728L346.242 472.255C337.608 475.216 328.722 477.627 319.624 479.446L319.722 479.937C310.782 481.724 301.638 482.942 292.329 483.55L292.297 483.051C287.736 483.349 283.136 483.5 278.5 483.5C273.864 483.5 269.264 483.349 264.703 483.051L264.671 483.55C255.362 482.942 246.218 481.724 237.278 479.937L237.376 479.446C228.278 477.627 219.392 475.216 210.758 472.255L210.596 472.728C201.827 469.719 193.317 466.145 185.111 462.047L185.335 461.599C177.08 457.477 169.132 452.824 161.536 447.684L161.256 448.098C153.61 442.924 146.319 437.259 139.429 431.147L139.76 430.773C132.882 424.671 126.403 418.123 120.369 411.174L119.991 411.502C113.958 404.554 108.367 397.206 103.264 389.502L103.681 389.226C98.6203 381.586 94.0402 373.596 89.9842 365.299L89.535 365.518C85.5097 357.284 81.9994 348.748 79.0464 339.954L79.5204 339.795C76.6165 331.146 74.2528 322.247 72.4698 313.138L71.9791 313.234C70.2282 304.289 69.0361 295.141 68.4407 285.83L68.9397 285.798C68.6481 281.237 68.5 276.636 68.5 272C68.5 267.364 68.6481 262.763 68.9397 258.202L68.4407 258.17C69.0361 248.859 70.2282 239.711 71.9791 230.766L72.4698 230.862C74.2528 221.753 76.6165 212.854 79.5204 204.205L79.0464 204.046C81.9994 195.252 85.5097 186.716 89.535 178.482L89.9842 178.701C94.0402 170.404 98.6203 162.414 103.681 154.774L103.264 154.498C108.367 146.794 113.958 139.446 119.991 132.498L120.369 132.826C126.403 125.877 132.882 119.329 139.76 113.227L139.429 112.853C146.319 106.741 153.61 101.076 161.256 95.902L161.536 96.3161C169.132 91.1763 177.08 86.523 185.335 82.4006L185.111 81.9532C193.317 77.8553 201.827 74.2806 210.596 71.2724L210.758 71.7453C219.392 68.7838 228.278 66.3727 237.376 64.5536L237.278 64.0633C246.218 62.2757 255.362 61.0582 264.671 60.4502L264.703 60.9492C269.264 60.6513 273.864 60.5 278.5 60.5C283.136 60.5 287.736 60.6513 292.297 60.9492L292.329 60.4502C301.638 61.0582 310.782 62.2757 319.722 64.0633L319.624 64.5536C328.722 66.3727 337.608 68.7838 346.242 71.7453L346.404 71.2724C355.173 74.2806 363.683 77.8553 371.889 81.9532L371.665 82.4005C379.92 86.523 387.868 91.1763 395.464 96.3161L395.744 95.902C403.39 101.076 410.681 106.741 417.571 112.853L417.24 113.227C424.118 119.329 430.597 125.877 436.631 132.826L437.009 132.498C443.042 139.446 448.633 146.794 453.736 154.498L453.319 154.774C458.38 162.414 462.96 170.404 467.016 178.701L467.465 178.482C471.49 186.716 475.001 195.252 477.954 204.046L477.48 204.205C480.384 212.854 482.747 221.753 484.53 230.862L485.021 230.766Z" stroke="#42B16E" stroke-dasharray="30 30"/>
<path d="M426.424 227.254C429.3 236.886 431.282 246.91 432.271 257.227L431.774 257.275C432.254 262.284 432.5 267.363 432.5 272.5C432.5 277.637 432.254 282.716 431.774 287.725L432.271 287.773C431.282 298.09 429.3 308.114 426.424 317.746L425.944 317.603C423.007 327.439 419.134 336.866 414.429 345.778L414.871 346.012C410.086 355.075 404.443 363.608 398.053 371.499L397.664 371.184C391.258 379.094 384.098 386.357 376.295 392.862L376.615 393.246C368.801 399.759 360.343 405.515 351.354 410.4L351.115 409.961C342.248 414.779 332.861 418.748 323.062 421.761L323.208 422.239C313.592 425.195 303.58 427.232 293.271 428.25L293.222 427.752C288.214 428.247 283.137 428.5 278 428.5C272.863 428.5 267.786 428.247 262.778 427.752L262.729 428.25C252.42 427.232 242.408 425.195 232.792 422.239L232.938 421.761C223.139 418.748 213.752 414.779 204.885 409.961L204.646 410.4C195.657 405.515 187.199 399.759 179.385 393.246L179.705 392.862C171.902 386.357 164.742 379.094 158.336 371.184L157.947 371.499C151.557 363.608 145.914 355.075 141.129 346.012L141.571 345.778C136.866 336.866 132.993 327.439 130.056 317.603L129.576 317.746C126.7 308.114 124.718 298.09 123.729 287.773L124.226 287.725C123.746 282.716 123.5 277.637 123.5 272.5C123.5 267.363 123.746 262.284 124.226 257.275L123.729 257.227C124.718 246.91 126.7 236.886 129.576 227.254L130.056 227.397C132.993 217.561 136.866 208.134 141.571 199.222L141.129 198.988C145.914 189.925 151.557 181.392 157.947 173.501L158.336 173.816C164.742 165.906 171.902 158.643 179.705 152.138L179.385 151.754C187.199 145.241 195.657 139.485 204.646 134.6L204.885 135.039C213.752 130.221 223.139 126.252 232.938 123.239L232.792 122.761C242.408 119.805 252.42 117.768 262.729 116.75L262.778 117.248C267.786 116.753 272.863 116.5 278 116.5C283.137 116.5 288.214 116.753 293.222 117.248L293.271 116.75C303.58 117.768 313.592 119.805 323.208 122.761L323.062 123.239C332.861 126.252 342.248 130.221 351.115 135.039L351.354 134.6C360.343 139.485 368.801 145.241 376.615 151.754L376.295 152.138C384.098 158.643 391.258 165.906 397.664 173.816L398.053 173.501C404.443 181.392 410.086 189.925 414.871 198.988L414.429 199.222C419.134 208.134 423.007 217.561 425.944 227.397L426.424 227.254Z" stroke="#42B16E" stroke-dasharray="30 30"/>
<path d="M383.417 229.143C387.143 238.247 389.744 247.94 391.045 258.044L390.549 258.108C391.176 262.982 391.5 267.953 391.5 273C391.5 278.047 391.176 283.018 390.549 287.892L391.045 287.956C389.744 298.06 387.143 307.753 383.417 316.857L382.954 316.668C379.15 325.963 374.168 334.642 368.195 342.516L368.594 342.818C362.541 350.798 355.476 357.954 347.592 364.093L347.285 363.698C339.47 369.783 330.847 374.862 321.607 378.744L321.801 379.205C312.72 383.021 303.044 385.686 292.954 387.02L292.888 386.524C288.016 387.168 283.047 387.5 278 387.5C272.953 387.5 267.984 387.168 263.112 386.524L263.046 387.02C252.956 385.686 243.28 383.021 234.199 379.205L234.393 378.744C225.153 374.862 216.53 369.783 208.715 363.698L208.408 364.093C200.524 357.954 193.459 350.798 187.406 342.818L187.805 342.516C181.832 334.642 176.85 325.963 173.046 316.668L172.583 316.857C168.857 307.753 166.256 298.06 164.955 287.956L165.451 287.892C164.824 283.018 164.5 278.047 164.5 273C164.5 267.953 164.824 262.982 165.451 258.108L164.955 258.044C166.256 247.94 168.857 238.247 172.583 229.143L173.046 229.332C176.85 220.037 181.832 211.358 187.805 203.484L187.406 203.182C193.459 195.202 200.524 188.046 208.408 181.907L208.715 182.302C216.53 176.217 225.153 171.138 234.393 167.256L234.199 166.795C243.28 162.979 252.956 160.314 263.046 158.98L263.112 159.476C267.984 158.832 272.953 158.5 278 158.5C283.047 158.5 288.016 158.832 292.888 159.476L292.954 158.98C303.044 160.314 312.72 162.979 321.801 166.795L321.607 167.256C330.847 171.138 339.47 176.217 347.285 182.302L347.592 181.907C355.476 188.046 362.541 195.202 368.594 203.182L368.195 203.484C374.168 211.358 379.15 220.037 382.954 229.332L383.417 229.143Z" stroke="#42B16E" stroke-dasharray="30 30"/>
<path d="M345.509 228.28C351.66 236.639 356.096 246.196 358.339 256.502L357.85 256.609C358.932 261.58 359.5 266.728 359.5 272C359.5 277.272 358.932 282.42 357.85 287.391L358.339 287.497C356.096 297.804 351.66 307.361 345.509 315.72L345.106 315.424C339.039 323.669 331.29 330.744 322.323 336.209L322.583 336.636C313.896 341.93 304.075 345.722 293.537 347.62L293.449 347.128C288.447 348.028 283.282 348.5 278 348.5C272.718 348.5 267.553 348.028 262.551 347.128L262.463 347.62C251.925 345.722 242.104 341.93 233.417 336.636L233.677 336.209C224.71 330.744 216.961 323.669 210.894 315.424L210.491 315.72C204.34 307.361 199.904 297.804 197.661 287.497L198.15 287.391C197.068 282.42 196.5 277.272 196.5 272C196.5 266.728 197.068 261.58 198.15 256.609L197.661 256.503C199.904 246.196 204.34 236.639 210.491 228.28L210.894 228.576C216.961 220.331 224.71 213.256 233.677 207.791L233.417 207.364C242.104 202.07 251.925 198.278 262.463 196.38L262.551 196.872C267.553 195.972 272.718 195.5 278 195.5C283.282 195.5 288.447 195.972 293.449 196.872L293.537 196.38C304.075 198.278 313.896 202.07 322.583 207.364L322.323 207.791C331.29 213.256 339.039 220.331 345.106 228.576L345.509 228.28Z" stroke="#42B16E" stroke-dasharray="30 30"/>
<path d="M299.163 222.773C313.167 227.983 324.43 238.21 330.38 251.064L329.927 251.274C332.87 257.633 334.5 264.639 334.5 272C334.5 279.361 332.87 286.367 329.927 292.726L330.38 292.936C324.43 305.79 313.167 316.017 299.163 321.227L298.988 320.758C292.501 323.172 285.418 324.5 278 324.5C270.582 324.5 263.499 323.172 257.012 320.758L256.837 321.227C242.833 316.017 231.57 305.79 225.62 292.936L226.073 292.726C223.13 286.367 221.5 279.361 221.5 272C221.5 264.639 223.13 257.633 226.073 251.274L225.62 251.064C231.57 238.21 242.833 227.983 256.837 222.773L257.012 223.242C263.499 220.828 270.582 219.5 278 219.5C285.418 219.5 292.501 220.828 298.988 223.242L299.163 222.773Z" stroke="#42B16E" stroke-dasharray="30 30"/>
<path d="M291.883 237.107C300.361 241.088 307.102 248.606 310.529 257.946L310.059 258.119C311.634 262.411 312.5 267.095 312.5 272C312.5 276.905 311.634 281.589 310.059 285.881L310.529 286.054C307.102 295.394 300.361 302.912 291.883 306.893L291.67 306.441C287.478 308.409 282.857 309.5 278 309.5C273.143 309.5 268.522 308.409 264.33 306.441L264.117 306.893C255.639 302.912 248.898 295.394 245.471 286.054L245.941 285.881C244.366 281.589 243.5 276.905 243.5 272C243.5 267.095 244.366 262.411 245.941 258.119L245.471 257.946C248.898 248.606 255.639 241.088 264.117 237.107L264.33 237.559C268.522 235.591 273.143 234.5 278 234.5C282.857 234.5 287.478 235.591 291.67 237.559L291.883 237.107Z" stroke="#42B16E" stroke-dasharray="30 30"/>
<path d="M286.356 250.931C291.818 253.428 296.167 258.165 298.387 264.059L297.919 264.235C298.938 266.943 299.5 269.9 299.5 273C299.5 276.1 298.938 279.057 297.919 281.765L298.387 281.941C296.167 287.835 291.818 292.572 286.356 295.069L286.148 294.615C283.493 295.828 280.57 296.5 277.5 296.5C274.43 296.5 271.507 295.828 268.852 294.615L268.644 295.069C263.182 292.572 258.833 287.835 256.613 281.941L257.081 281.765C256.062 279.057 255.5 276.1 255.5 273C255.5 269.9 256.062 266.943 257.081 264.235L256.613 264.059C258.833 258.165 263.182 253.428 268.644 250.931L268.852 251.385C271.507 250.172 274.43 249.5 277.5 249.5C280.57 249.5 283.493 250.172 286.148 251.385L286.356 250.931Z" stroke="#42B16E" stroke-dasharray="30 30"/>
</svg> 