<svg width="18" height="18" viewBox="0 0 18 18" fill="none" xmlns="http://www.w3.org/2000/svg">
<path fill-rule="evenodd" clip-rule="evenodd" d="M17.3969 7.9602L9.87853 0.438978C9.5862 0.146286 9.23569 0 8.82763 0C8.42716 0 8.08074 0.146286 7.78817 0.438978L6.92208 1.30544C6.62946 1.58276 6.48319 1.92935 6.48319 2.3453C6.48319 2.76117 6.62946 3.10777 6.92208 3.38516L10.3059 6.78178H2.17535C1.77509 6.78178 1.44979 6.92617 1.19956 7.21505C0.949333 7.50394 0.824219 7.85248 0.824219 8.26058V9.73946C0.824219 10.1477 0.949373 10.4961 1.19956 10.785C1.44975 11.0739 1.77509 11.2181 2.17535 11.2181H10.3057L6.92195 14.6035C6.62933 14.896 6.48307 15.2465 6.48307 15.6548C6.48307 16.0631 6.62933 16.4136 6.92195 16.7061L7.78804 17.5725C8.08843 17.8575 8.43485 18 8.82751 18C9.22793 18 9.57835 17.8575 9.87845 17.5725L17.3968 10.0513C17.6817 9.76629 17.8242 9.41593 17.8242 8.99994C17.8242 8.57638 17.6817 8.22962 17.3969 7.9602Z" fill="#262839"/>
</svg>
