<svg width="21" height="21" viewBox="0 0 21 21" fill="none" xmlns="http://www.w3.org/2000/svg">
<path d="M2.1875 15.6458C3.03144 16.1126 9.13981 19.6336 13.4837 16.9198C17.8273 14.206 17.5875 9.53041 17.5875 7.38753C17.9813 6.56328 18.8125 6.14416 18.8125 3.91291C17.9961 4.66716 17.1846 4.92353 16.3778 4.68291C15.5877 3.47803 14.5005 2.94472 13.1158 3.08385C11.0394 3.29253 10.2799 5.32953 10.5035 7.96547C7.30187 9.58422 4.7915 6.79166 3.49737 4.68291C3.06512 6.34366 2.64862 8.33778 3.49737 10.5432C4.0635 12.0141 5.42456 13.257 7.57969 14.2733C5.39525 15.4568 3.598 15.9148 2.1875 15.6458Z" stroke="#F6E0DB" stroke-opacity="0.7" stroke-width="4" stroke-linejoin="round"/>
</svg>
